<svg width="32" height="32" viewBox="0 0 32 32" fill="none" xmlns="http://www.w3.org/2000/svg">
<path d="M16 32C24.8366 32 32 24.8366 32 16C32 7.16344 24.8366 0 16 0C7.16346 0 0 7.16344 0 16C0 24.8366 7.16346 32 16 32Z" fill="#E0E0E0"/>
<path d="M16 31.5137C24.7023 31.5137 31.7569 24.4591 31.7569 15.7568C31.7569 7.05457 24.7023 0 16 0C7.29775 0 0.243164 7.05457 0.243164 15.7568C0.243164 24.4591 7.29775 31.5137 16 31.5137Z" fill="white"/>
<mask id="mask0_602_36" style="mask-type:luminance" maskUnits="userSpaceOnUse" x="5" y="5" width="22" height="22">
<path d="M26.2126 13.9088H16.243V18.0426H21.9816C21.4467 20.6687 19.2096 22.1763 16.243 22.1763C12.7415 22.1763 9.92084 19.3556 9.92084 15.8541C9.92084 12.3526 12.7415 9.53191 16.243 9.53191C17.7506 9.53191 19.1123 10.0669 20.1822 10.9423L23.2947 7.82979C21.398 6.17629 18.9664 5.15501 16.243 5.15501C10.3099 5.15501 5.54395 9.92097 5.54395 15.8541C5.54395 21.7872 10.3099 26.5532 16.243 26.5532C21.5926 26.5532 26.4558 22.6626 26.4558 15.8541C26.4558 15.2219 26.3585 14.541 26.2126 13.9088Z" fill="white"/>
</mask>
<g mask="url(#mask0_602_36)">
<path d="M4.57129 22.1763V9.53191L12.8388 15.8541L4.57129 22.1763Z" fill="#FBBC05"/>
</g>
<mask id="mask1_602_36" style="mask-type:luminance" maskUnits="userSpaceOnUse" x="5" y="5" width="22" height="22">
<path d="M26.2126 13.9088H16.243V18.0426H21.9816C21.4467 20.6687 19.2096 22.1763 16.243 22.1763C12.7415 22.1763 9.92084 19.3556 9.92084 15.8541C9.92084 12.3526 12.7415 9.53191 16.243 9.53191C17.7506 9.53191 19.1123 10.0669 20.1822 10.9423L23.2947 7.82979C21.398 6.17629 18.9664 5.15501 16.243 5.15501C10.3099 5.15501 5.54395 9.92097 5.54395 15.8541C5.54395 21.7872 10.3099 26.5532 16.243 26.5532C21.5926 26.5532 26.4558 22.6626 26.4558 15.8541C26.4558 15.2219 26.3585 14.541 26.2126 13.9088Z" fill="white"/>
</mask>
<g mask="url(#mask1_602_36)">
<path d="M4.57129 9.53192L12.8388 15.8541L16.243 12.8876L27.9148 10.9909V4.18237H4.57129V9.53192Z" fill="#EA4335"/>
</g>
<mask id="mask2_602_36" style="mask-type:luminance" maskUnits="userSpaceOnUse" x="5" y="5" width="22" height="22">
<path d="M26.2126 13.9088H16.243V18.0426H21.9816C21.4467 20.6687 19.2096 22.1763 16.243 22.1763C12.7415 22.1763 9.92084 19.3556 9.92084 15.8541C9.92084 12.3526 12.7415 9.53191 16.243 9.53191C17.7506 9.53191 19.1123 10.0669 20.1822 10.9423L23.2947 7.82979C21.398 6.17629 18.9664 5.15501 16.243 5.15501C10.3099 5.15501 5.54395 9.92097 5.54395 15.8541C5.54395 21.7872 10.3099 26.5532 16.243 26.5532C21.5926 26.5532 26.4558 22.6626 26.4558 15.8541C26.4558 15.2219 26.3585 14.541 26.2126 13.9088Z" fill="white"/>
</mask>
<g mask="url(#mask2_602_36)">
<path d="M4.57129 22.1763L19.161 10.9909L23.0029 11.4772L27.9148 4.18237V27.5258H4.57129V22.1763Z" fill="#34A853"/>
</g>
<mask id="mask3_602_36" style="mask-type:luminance" maskUnits="userSpaceOnUse" x="5" y="5" width="22" height="22">
<path d="M26.2126 13.9088H16.243V18.0426H21.9816C21.4467 20.6687 19.2096 22.1763 16.243 22.1763C12.7415 22.1763 9.92084 19.3556 9.92084 15.8541C9.92084 12.3526 12.7415 9.53191 16.243 9.53191C17.7506 9.53191 19.1123 10.0669 20.1822 10.9423L23.2947 7.82979C21.398 6.17629 18.9664 5.15501 16.243 5.15501C10.3099 5.15501 5.54395 9.92097 5.54395 15.8541C5.54395 21.7872 10.3099 26.5532 16.243 26.5532C21.5926 26.5532 26.4558 22.6626 26.4558 15.8541C26.4558 15.2219 26.3585 14.541 26.2126 13.9088Z" fill="white"/>
</mask>
<g mask="url(#mask3_602_36)">
<path d="M27.9148 27.5258L12.8388 15.8541L10.8936 14.3951L27.9148 9.53191V27.5258Z" fill="#4285F4"/>
</g>
</svg>
